<?xml version="1.0" encoding="utf-8"?>
<!-- Generator: Adobe Illustrator 24.0.0, SVG Export Plug-In . SVG Version: 6.00 Build 0)  -->
<svg version="1.1" id="Layer_1" xmlns="http://www.w3.org/2000/svg" xmlns:xlink="http://www.w3.org/1999/xlink" x="0px" y="0px"
	 viewBox="0 0 105 42" style="enable-background:new 0 0 105 42;" xml:space="preserve">
<style type="text/css">
	.st0{fill-rule:evenodd;clip-rule:evenodd;fill:#212123;}
	.st1{fill:#F1C366;}
	.st2{clip-path:url(#SVGID_2_);}
	.st3{fill:url(#SVGID_3_);}
	.st4{clip-path:url(#SVGID_5_);}
	.st5{opacity:0.7;}
	.st6{fill:url(#SVGID_6_);}
	.st7{opacity:0.7;fill:url(#SVGID_7_);enable-background:new    ;}
	.st8{clip-path:url(#SVGID_9_);}
	.st9{fill:url(#SVGID_10_);}
	.st10{opacity:0.33;clip-path:url(#SVGID_12_);}
	.st11{fill:url(#SVGID_13_);}
	.st12{opacity:0.7;fill:url(#SVGID_14_);enable-background:new    ;}
	.st13{clip-path:url(#SVGID_16_);}
	.st14{opacity:0.7;fill:url(#SVGID_17_);enable-background:new    ;}
	.st15{opacity:0.7;fill:url(#SVGID_18_);enable-background:new    ;}
	.st16{clip-path:url(#SVGID_20_);}
	.st17{opacity:0.28;}
	.st18{fill:url(#SVGID_21_);}
	.st19{clip-path:url(#SVGID_23_);}
	.st20{opacity:0.7;fill:url(#SVGID_24_);enable-background:new    ;}
	.st21{opacity:0.7;fill:url(#SVGID_25_);enable-background:new    ;}
	.st22{clip-path:url(#SVGID_27_);}
	.st23{fill:url(#SVGID_28_);}
	.st24{fill:#B26B0E;}
	.st25{fill:#DDA74E;}
	.st26{fill:url(#SVGID_29_);}
	.st27{fill:url(#SVGID_30_);}
	.st28{fill:url(#SVGID_31_);}
	.st29{fill:#FFFFFF;}
	.st30{fill:none;}
</style>
<title>Artboard 1</title>
<g id="Layer_1-2">
	<path class="st0" d="M47,30.2c4.8,0,6.7-2.7,6.7-7.6v-5.4l0,0v-1.6c0-0.5-0.2-0.9-0.7-0.5c-1.2,1-2.7,1.5-4.3,1.4
		c-0.4,0-0.4,0.4,0,0.4h1.2c0.3,0,0.5,0.2,0.5,0.7v5.1c0,5.2-1.5,7-3.6,7.1h-0.6c-1.2,0-1.8-0.5-2-1.3c-0.2-1.7-0.3-3.3-0.2-5V8.4
		h-0.1c-0.3,0-0.6,0.1-0.8,0.2c-1.1,0.5-2.2,0.7-3.3,0.7h-0.6c-0.2,0-0.3,0.1-0.3,0.2s0.1,0.2,0.3,0.2c0.8,0,1.5-0.1,1.8,0.1
		s0.2,0.8,0.2,3.5V29c0,0.7,0.1,1,0.2,1c0.2,0,0.5-0.1,0.6-0.3c0.3-0.2,0.6-0.3,0.9-0.3c0.5,0.1,1.1,0.2,1.6,0.4
		c0.6,0.2,1.2,0.4,1.8,0.4L47,30.2z"/>
	<path class="st0" d="M61.2,18.5c0-0.5-0.1-0.5-0.7-0.5c-1.3,0-2.7,0.5-2.7,2.5v1.6c0,2.7-1,12.5-9.2,12.6c0.7-0.7,0.7-1.8,0-2.5
		c-0.7-0.7-1.8-0.7-2.5,0l0,0c-0.5,0.5-0.7,1.3-0.4,2c0.1,0.8,1,1.2,2.3,1.2c10.1,0,13.2-7.2,13.2-13.7
		C61.2,20.3,61.2,18.6,61.2,18.5z"/>
	<path class="st0" d="M37.2,15.4c-1.3,1-3,1.6-4.6,1.6h-0.5c0.8-0.5,1.1-1.6,0.6-2.4c-0.5-0.8-1.6-1.1-2.4-0.6s-1.1,1.6-0.6,2.4
		c0,0,0,0,0,0c0.3,0.4,0.7,0.7,1.2,0.8H34c0.3,0,0.5,0.2,0.5,0.7V22c0,5.3-1.4,6.5-3.4,6.6l0,0c-1.2-0.1-1.6-0.2-1.9-0.9
		s-0.3-1-0.3-3.1v-1.4c0-0.2,0-0.4,0-0.6c-0.1-1.2-0.6-2.3-1.5-3c-1.2-1-2.7-1.5-4.3-1.4c-2.8,0-5.5,0.6-5.5,3.3V24
		c0.1,1.6,1.3,2.8,2.9,3c1.5,0.2,3,0.7,4.3,1.6c0.7,0.6,1.1,1.5,1,2.5c0.2,1-0.5,1.9-1.5,2.1c-0.2,0-0.4,0-0.6,0H12.3
		c-5.7,0-7.1-0.6-7.1-6v-4.9l0,0v-1.1c0-0.5,0.2-0.7,0.5-0.7h1.2c0.4,0,0.4-0.4,0-0.4c-1.6,0.1-3.1-0.4-4.3-1.4
		c-0.1-0.1-0.3-0.3-0.5-0.4c-0.1,0.3-0.2,0.6-0.2,0.9v3.1l0,0v5.3l0,0c0.3,4.8,3.6,6.5,8.1,6.5h15c2.1,0,3.7,0.2,3.7-3.2
		c0-2-0.3-2.7-2.9-3.7c-4.2-1.6-5.2-1.4-5.2-2v-4c0-1.6,1.4-2.5,3-2.5c0.8,0,1.5,0.2,2.1,0.7c0.4,0.3,0.3,1.1,0.3,1.8v3.9
		c0,0.4,0.1,0.7,0.3,1c0.3,0.3,0.8,0.7,1.3,1.2l1.3,1.3c0.3,0.3,0.7,0.5,1.1,0.4H31c4.5,0,6.8-1.9,6.8-6.2v-7
		C37.9,15.5,37.6,15,37.2,15.4z"/>
	<path class="st1" d="M100.2,22c-0.5,0.8-1,1.5-1.7,2.2l-0.3,0.3c1.4,4.2-0.8,8.7-5,10.1c-2.9,1-6,0.2-8.2-2l-1.4-1.4
		c-1.7-1.6-1.7-4.3,0-6c0,0,0,0,0,0l0,0c0.5-0.4,0.6-1.2,0.1-1.7c-0.4-0.5-1.2-0.6-1.7-0.1l0,0l-0.2,0.1c-1.6,1.7-4.3,1.7-6,0
		c0,0,0,0,0,0l0,0L74.4,22l-0.3-0.4c-0.6,0.7-1.1,1.6-1.5,2.5l0.8,0.8c1.7,1.7,4.1,2.5,6.4,2.2c-0.3,2.4,0.5,4.8,2.2,6.5l1,1
		c4.2,4.2,11,4.2,15.2,0C101.6,31.3,102.4,26.2,100.2,22z"/>
	<g>
		<defs>
			<path id="SVGID_1_" d="M100.2,22c-0.5,0.8-1,1.5-1.7,2.2l-0.3,0.3c1.4,4.2-0.8,8.7-5,10.1c-2.9,1-6,0.2-8.2-2l-1.4-1.4
				c-1.7-1.6-1.7-4.3,0-6c0,0,0,0,0,0l0,0c0.5-0.4,0.6-1.2,0.1-1.7c-0.4-0.5-1.2-0.6-1.7-0.1l0,0l-0.2,0.1c-1.6,1.7-4.3,1.7-6,0
				c0,0,0,0,0,0l0,0L74.4,22l-0.3-0.4c-0.6,0.7-1.1,1.6-1.5,2.5l0.8,0.8c1.7,1.7,4.1,2.5,6.4,2.2c-0.3,2.4,0.5,4.8,2.2,6.5l1,1
				c4.2,4.2,11,4.2,15.2,0C101.6,31.3,102.4,26.2,100.2,22z"/>
		</defs>
		<clipPath id="SVGID_2_">
			<use xlink:href="#SVGID_1_"  style="overflow:visible;"/>
		</clipPath>
		<g class="st2">
			
				<radialGradient id="SVGID_3_" cx="-118.0435" cy="15.33" r="12.3" gradientTransform="matrix(0.97 0 0 0.97 205.29 28.61)" gradientUnits="userSpaceOnUse">
				<stop  offset="0.13" style="stop-color:#F4DC6B"/>
				<stop  offset="1" style="stop-color:#FFFFFF;stop-opacity:0"/>
			</radialGradient>
			<circle class="st3" cx="90.4" cy="43.5" r="12"/>
		</g>
	</g>
	<g>
		<defs>
			<path id="SVGID_4_" d="M100.2,22c-0.5,0.8-1,1.5-1.7,2.2l-0.3,0.3c1.4,4.2-0.8,8.7-5,10.1c-2.9,1-6,0.2-8.2-2l-1.4-1.4
				c-1.7-1.6-1.7-4.3,0-6c0,0,0,0,0,0l0,0c0.5-0.4,0.6-1.2,0.1-1.7c-0.4-0.5-1.2-0.6-1.7-0.1l0,0l-0.2,0.1c-1.6,1.7-4.3,1.7-6,0
				c0,0,0,0,0,0l0,0L74.4,22l-0.3-0.4c-0.6,0.7-1.1,1.6-1.5,2.5l0.8,0.8c1.7,1.7,4.1,2.5,6.4,2.2c-0.3,2.4,0.5,4.8,2.2,6.5l1,1
				c4.2,4.2,11,4.2,15.2,0C101.6,31.3,102.4,26.2,100.2,22z"/>
		</defs>
		<clipPath id="SVGID_5_">
			<use xlink:href="#SVGID_4_"  style="overflow:visible;"/>
		</clipPath>
		<g class="st4">
			<g class="st5">
				
					<linearGradient id="SVGID_6_" gradientUnits="userSpaceOnUse" x1="-1812.7803" y1="1504.4811" x2="-1817.8303" y2="1510.5111" gradientTransform="matrix(3.000000e-02 1 -1 3.000000e-02 1635.87 1793)">
					<stop  offset="0" style="stop-color:#E49F2C;stop-opacity:0"/>
					<stop  offset="0.83" style="stop-color:#DDA74E"/>
				</linearGradient>
				<path class="st6" d="M73.7,19.7l-3.3,3.9l5,5.1c0,0,5.2-5.1,5.1-5.2S73.7,19.7,73.7,19.7z"/>
				
					<linearGradient id="SVGID_7_" gradientUnits="userSpaceOnUse" x1="-1812.7803" y1="1504.4811" x2="-1817.8303" y2="1510.5111" gradientTransform="matrix(3.000000e-02 1 -1 3.000000e-02 1635.87 1793)">
					<stop  offset="0" style="stop-color:#E49F2C;stop-opacity:0"/>
					<stop  offset="0.83" style="stop-color:#000000;stop-opacity:0.2"/>
				</linearGradient>
				<path class="st7" d="M73.7,19.7l-3.3,3.9l5,5.1c0,0,5.2-5.1,5.1-5.2S73.7,19.7,73.7,19.7z"/>
			</g>
		</g>
	</g>
	<path class="st1" d="M97.2,18.4c-1.7-1.7-4.1-2.5-6.5-2.2c0.3-2.4-0.5-4.8-2.2-6.5l-1-1c-4.2-4.2-11-4.2-15.2,0
		c-3.3,3.3-4.1,8.4-1.9,12.6c0.5-0.8,1-1.5,1.7-2.2l0.3-0.3c-1.4-4.1,0.8-8.7,4.9-10.1c2.9-1,6.1-0.2,8.3,2l0,0l1.2,1.3
		c1.8,1.8,1.8,4.7,0,6.5l-0.8,0.8c-0.5,0.5-0.5,1.2,0,1.7c0.5,0.5,1.2,0.5,1.7,0l0,0l0.8-0.8c1.8-1.8,4.7-1.8,6.5,0l1.2,1.2l0.3,0.4
		c0.6-0.7,1.1-1.6,1.5-2.5L97.2,18.4z"/>
	<g>
		<defs>
			<path id="SVGID_8_" d="M97.2,18.4c-1.7-1.7-4.1-2.5-6.5-2.2c0.3-2.4-0.5-4.8-2.2-6.5l-1-1c-4.2-4.2-11-4.2-15.2,0
				c-3.3,3.3-4.1,8.4-1.9,12.6c0.5-0.8,1-1.5,1.7-2.2l0.3-0.3c-1.4-4.1,0.8-8.7,4.9-10.1c2.9-1,6.1-0.2,8.3,2l0,0l1.2,1.3
				c1.8,1.8,1.8,4.7,0,6.5l-0.8,0.8c-0.5,0.5-0.5,1.2,0,1.7c0.5,0.5,1.2,0.5,1.7,0l0,0l0.8-0.8c1.8-1.8,4.7-1.8,6.5,0l1.2,1.2
				l0.3,0.4c0.6-0.7,1.1-1.6,1.5-2.5L97.2,18.4z"/>
		</defs>
		<clipPath id="SVGID_9_">
			<use xlink:href="#SVGID_8_"  style="overflow:visible;"/>
		</clipPath>
		<g class="st8">
			
				<radialGradient id="SVGID_10_" cx="-126.8035" cy="-27.35" r="12.3" gradientTransform="matrix(0.97 0 0 0.97 205.29 28.61)" gradientUnits="userSpaceOnUse">
				<stop  offset="0.32" style="stop-color:#FEE391"/>
				<stop  offset="0.38" style="stop-color:#FEE494;stop-opacity:0.97"/>
				<stop  offset="0.47" style="stop-color:#FEE69E;stop-opacity:0.88"/>
				<stop  offset="0.58" style="stop-color:#FEEAAD;stop-opacity:0.74"/>
				<stop  offset="0.71" style="stop-color:#FEF0C3;stop-opacity:0.55"/>
				<stop  offset="0.85" style="stop-color:#FFF7DE;stop-opacity:0.3"/>
				<stop  offset="1" style="stop-color:#FFFFFF;stop-opacity:0"/>
			</radialGradient>
			<circle class="st9" cx="81.9" cy="2" r="12"/>
		</g>
	</g>
	<g>
		<defs>
			<path id="SVGID_11_" d="M97.2,18.4c-1.7-1.7-4.1-2.5-6.5-2.2c0.3-2.4-0.5-4.8-2.2-6.5l-1-1c-4.2-4.2-11-4.2-15.2,0
				c-3.3,3.3-4.1,8.4-1.9,12.6c0.5-0.8,1-1.5,1.7-2.2l0.3-0.3c-1.4-4.1,0.8-8.7,4.9-10.1c2.9-1,6.1-0.2,8.3,2l0,0l1.2,1.3
				c1.8,1.8,1.8,4.7,0,6.5l-0.8,0.8c-0.5,0.5-0.5,1.2,0,1.7c0.5,0.5,1.2,0.5,1.7,0l0,0l0.8-0.8c1.8-1.8,4.7-1.8,6.5,0l1.2,1.2
				l0.3,0.4c0.6-0.7,1.1-1.6,1.5-2.5L97.2,18.4z"/>
		</defs>
		<clipPath id="SVGID_12_">
			<use xlink:href="#SVGID_11_"  style="overflow:visible;"/>
		</clipPath>
		<g class="st10">
			<g class="st5">
				
					<linearGradient id="SVGID_13_" gradientUnits="userSpaceOnUse" x1="3483.291" y1="1647.6818" x2="3478.241" y2="1653.7018" gradientTransform="matrix(-3.000000e-02 -1 1 -3.000000e-02 -1454.7 3546.8501)">
					<stop  offset="0" style="stop-color:#E49F2C;stop-opacity:0"/>
					<stop  offset="0.83" style="stop-color:#DDA74E"/>
				</linearGradient>
				<path class="st11" d="M96.4,23.5l3.3-3.9l-5-5.1c0,0-5.2,5.1-5.1,5.2S96.4,23.5,96.4,23.5z"/>
				
					<linearGradient id="SVGID_14_" gradientUnits="userSpaceOnUse" x1="3483.291" y1="1647.6818" x2="3478.241" y2="1653.7018" gradientTransform="matrix(-3.000000e-02 -1 1 -3.000000e-02 -1454.7 3546.8501)">
					<stop  offset="0" style="stop-color:#E49F2C;stop-opacity:0"/>
					<stop  offset="0.83" style="stop-color:#000000;stop-opacity:0.2"/>
				</linearGradient>
				<path class="st12" d="M96.4,23.5l3.3-3.9l-5-5.1c0,0-5.2,5.1-5.1,5.2S96.4,23.5,96.4,23.5z"/>
			</g>
		</g>
	</g>
	<path class="st1" d="M81.7,10.1c-1.6,1.6-2.2,4-1.7,6.2c-2.2-0.5-4.6,0.1-6.2,1.7l-1.4,1.4c-4.2,4.2-4.2,11,0,15.2
		c3.3,3.3,8.4,4.1,12.6,1.9c-0.8-0.5-1.5-1-2.2-1.7l-0.3-0.3c-4.1,1.4-8.7-0.8-10.1-4.9c-1-2.9-0.2-6.1,2-8.3l1.2-1.2
		c1.2-1.2,3-1.7,4.7-1.2c0.6,0.2,1.3,0,1.7-0.5c0.5-0.4,0.6-1.1,0.4-1.7c-0.5-1.7,0-3.5,1.2-4.7l1.3-1.2l0.4-0.3
		c-0.7-0.6-1.6-1.1-2.5-1.5L81.7,10.1z"/>
	<g>
		<defs>
			<path id="SVGID_15_" d="M81.7,10.1c-1.6,1.6-2.2,4-1.7,6.2c-2.2-0.5-4.6,0.1-6.2,1.7l-1.4,1.4c-4.2,4.2-4.2,11,0,15.2
				c3.3,3.3,8.4,4.1,12.6,1.9c-0.8-0.5-1.5-1-2.2-1.7l-0.3-0.3c-4.1,1.4-8.7-0.8-10.1-4.9c-1-2.9-0.2-6.1,2-8.3l1.2-1.2
				c1.2-1.2,3-1.7,4.7-1.2c0.6,0.2,1.3,0,1.7-0.5c0.5-0.4,0.6-1.1,0.4-1.7c-0.5-1.7,0-3.5,1.2-4.7l1.3-1.2l0.4-0.3
				c-0.7-0.6-1.6-1.1-2.5-1.5L81.7,10.1z"/>
		</defs>
		<clipPath id="SVGID_16_">
			<use xlink:href="#SVGID_15_"  style="overflow:visible;"/>
		</clipPath>
		<g class="st13">
			
				<linearGradient id="SVGID_17_" gradientUnits="userSpaceOnUse" x1="1792.6401" y1="4847.3564" x2="1786.4614" y2="4854.7153" gradientTransform="matrix(-1 0 0 -1 1872.1 4863.8301)">
				<stop  offset="0" style="stop-color:#E49F2C;stop-opacity:0"/>
				<stop  offset="0.83" style="stop-color:#DDA74E"/>
			</linearGradient>
			<path class="st14" d="M87.7,11.2L83.1,7l-6.5,5.9c0,0,6.1,6.5,6.2,6.4S87.7,11.2,87.7,11.2z"/>
			
				<linearGradient id="SVGID_18_" gradientUnits="userSpaceOnUse" x1="1792.6401" y1="4847.3564" x2="1786.4614" y2="4854.7153" gradientTransform="matrix(-1 0 0 -1 1872.1 4863.8301)">
				<stop  offset="0" style="stop-color:#E49F2C;stop-opacity:0"/>
				<stop  offset="0.83" style="stop-color:#000000;stop-opacity:0.2"/>
			</linearGradient>
			<path class="st15" d="M87.7,11.2L83.1,7l-6.5,5.9c0,0,6.1,6.5,6.2,6.4S87.7,11.2,87.7,11.2z"/>
		</g>
	</g>
	<g>
		<defs>
			<path id="SVGID_19_" d="M81.7,10.1c-1.6,1.6-2.2,4-1.7,6.2c-2.2-0.5-4.6,0.1-6.2,1.7l-1.4,1.4c-4.2,4.2-4.2,11,0,15.2
				c3.3,3.3,8.4,4.1,12.6,1.9c-0.8-0.5-1.5-1-2.2-1.7l-0.3-0.3c-4.1,1.4-8.7-0.8-10.1-4.9c-1-2.9-0.2-6.1,2-8.3l1.2-1.2
				c1.2-1.2,3-1.7,4.7-1.2c0.6,0.2,1.3,0,1.7-0.5c0.5-0.4,0.6-1.1,0.4-1.7c-0.5-1.7,0-3.5,1.2-4.7l1.3-1.2l0.4-0.3
				c-0.7-0.6-1.6-1.1-2.5-1.5L81.7,10.1z"/>
		</defs>
		<clipPath id="SVGID_20_">
			<use xlink:href="#SVGID_19_"  style="overflow:visible;"/>
		</clipPath>
		<g class="st16">
			<g class="st17">
				
					<radialGradient id="SVGID_21_" cx="2020.1534" cy="4866.8799" r="14.79" gradientTransform="matrix(-0.97 0 0 -0.97 2027.5399 4762.7002)" gradientUnits="userSpaceOnUse">
					<stop  offset="0.13" style="stop-color:#F4DC6B"/>
					<stop  offset="1" style="stop-color:#FFFFFF;stop-opacity:0"/>
				</radialGradient>
				<circle class="st18" cx="61.2" cy="25.6" r="14.4"/>
			</g>
		</g>
	</g>
	<path class="st1" d="M89,33.2c1.6-1.6,2.3-4,1.8-6.2c2.2,0.5,4.6-0.1,6.2-1.8l1.4-1.4c4.2-4.2,4.3-11,0.1-15.2
		C95,5.3,89.8,4.6,85.7,6.8c0.8,0.5,1.5,1,2.2,1.7l0.3,0.3c4.2-1.4,8.7,0.8,10.1,5c1,2.9,0.2,6.1-2,8.2L95,23.3
		c-1.2,1.2-3,1.7-4.7,1.2c-0.6-0.2-1.3,0-1.7,0.4c-0.5,0.4-0.6,1.1-0.4,1.7c0.5,1.7,0,3.5-1.2,4.7l-1.2,1.2l-0.4,0.3
		c0.7,0.6,1.6,1.1,2.5,1.5L89,33.2z"/>
	<g>
		<defs>
			<path id="SVGID_22_" d="M89,33.2c1.6-1.6,2.3-4,1.8-6.2c2.2,0.5,4.6-0.1,6.2-1.8l1.4-1.4c4.2-4.2,4.3-11,0.1-15.2
				C95,5.3,89.8,4.6,85.7,6.8c0.8,0.5,1.5,1,2.2,1.7l0.3,0.3c4.2-1.4,8.7,0.8,10.1,5c1,2.9,0.2,6.1-2,8.2L95,23.3
				c-1.2,1.2-3,1.7-4.7,1.2c-0.6-0.2-1.3,0-1.7,0.4c-0.5,0.4-0.6,1.1-0.4,1.7c0.5,1.7,0,3.5-1.2,4.7l-1.2,1.2l-0.4,0.3
				c0.7,0.6,1.6,1.1,2.5,1.5L89,33.2z"/>
		</defs>
		<clipPath id="SVGID_23_">
			<use xlink:href="#SVGID_22_"  style="overflow:visible;"/>
		</clipPath>
		<g class="st19">
			<linearGradient id="SVGID_24_" gradientUnits="userSpaceOnUse" x1="91.2157" y1="26.8448" x2="85.0357" y2="34.2048">
				<stop  offset="0" style="stop-color:#E49F2C;stop-opacity:0"/>
				<stop  offset="0.83" style="stop-color:#DDA74E"/>
			</linearGradient>
			<path class="st20" d="M83,32.1l4.6,4.2l6.4-5.9c0,0-6.1-6.5-6.2-6.4S83,32.1,83,32.1z"/>
			<linearGradient id="SVGID_25_" gradientUnits="userSpaceOnUse" x1="91.2157" y1="26.8448" x2="85.0357" y2="34.2048">
				<stop  offset="0" style="stop-color:#E49F2C;stop-opacity:0"/>
				<stop  offset="0.83" style="stop-color:#000000;stop-opacity:0.2"/>
			</linearGradient>
			<path class="st21" d="M83,32.1l4.6,4.2l6.4-5.9c0,0-6.1-6.5-6.2-6.4S83,32.1,83,32.1z"/>
		</g>
	</g>
	<g>
		<defs>
			<path id="SVGID_26_" d="M89,33.2c1.6-1.6,2.3-4,1.8-6.2c2.2,0.5,4.6-0.1,6.2-1.8l1.4-1.4c4.2-4.2,4.3-11,0.1-15.2
				C95,5.3,89.8,4.6,85.7,6.8c0.8,0.5,1.5,1,2.2,1.7l0.3,0.3c4.2-1.4,8.7,0.8,10.1,5c1,2.9,0.2,6.1-2,8.2L95,23.3
				c-1.2,1.2-3,1.7-4.7,1.2c-0.6-0.2-1.3,0-1.7,0.4c-0.5,0.4-0.6,1.1-0.4,1.7c0.5,1.7,0,3.5-1.2,4.7l-1.2,1.2l-0.4,0.3
				c0.7,0.6,1.6,1.1,2.5,1.5L89,33.2z"/>
		</defs>
		<clipPath id="SVGID_27_">
			<use xlink:href="#SVGID_26_"  style="overflow:visible;"/>
		</clipPath>
		<g class="st22">
			<radialGradient id="SVGID_28_" cx="-98.85" cy="-11.23" r="14.79" gradientUnits="userSpaceOnUse">
				<stop  offset="0.13" style="stop-color:#F4DC6B"/>
				<stop  offset="1" style="stop-color:#FFFFFF;stop-opacity:0"/>
			</radialGradient>
			<circle class="st23" cx="109.5" cy="17.7" r="14.4"/>
		</g>
	</g>
	<path class="st24" d="M75.2,22.7l0.7,0.7c1.6,1.7,4.3,1.7,6,0c0,0,0,0,0,0l0,0l0,0c-1.7,1.4-4.2,1.3-5.7-0.2l-1.4-1.5
		c-0.1-0.1-0.2-0.2-0.4-0.4l-0.2,0.3c0.1,0.1,0.2,0.2,0.3,0.4L75.2,22.7z"/>
	<path class="st24" d="M96.5,21l-1.2-1.2c-1.8-1.8-4.7-1.8-6.5,0l-0.3,0.3c1.8-1.8,4.7-1.8,6.5,0l1.2,1.2l0.3,0.4l0.2-0.3
		C96.7,21.2,96.6,21.1,96.5,21z"/>
	<path class="st24" d="M83.7,12c-0.9,0.9-1.4,2.1-1.4,3.3c0.1-1.1,0.6-2.2,1.5-3l1.2-1.2c0.2-0.2,0.3-0.3,0.5-0.5l0,0l-0.2-0.2
		c-0.1,0.1-0.2,0.2-0.3,0.2L85,10.8L83.7,12z"/>
	<path class="st24" d="M98.4,24.2l-0.3,0.2c1,2.8,0.3,5.9-1.8,8.1l0.2-0.1C98.7,30.2,99.4,27.1,98.4,24.2z"/>
	<path class="st24" d="M86.9,31.3c0.9-0.9,1.4-2.1,1.4-3.3c-0.1,1.1-0.6,2.2-1.5,3l-1.2,1.2c-0.2,0.2-0.4,0.3-0.5,0.5l0,0l0.2,0.2
		l0.3-0.2c0,0,0.1-0.1,0.1-0.1L86.9,31.3z"/>
	<path class="st25" d="M74.3,32.6c1.5,1.5,3.4,2.3,5.5,2.3h1.1c0.5-0.1,1.1-0.2,1.6-0.4l-0.3-0.3c-4.1,1.2-8.4-1.1-9.6-5.2
		c-0.8-2.8,0-5.7,2-7.7l1.2-1.2c1-1.1,2.5-1.6,3.9-1.4c-1.5-0.3-3.1,0.2-4.2,1.3L75,20.7l-0.6,0.6c-0.4,0.5-0.8,1-1.2,1.5
		c0,0-0.1,0.1-0.1,0.2l-0.2,0.3l-0.2,0.4l-0.1,0.3c-0.1,0.3-0.3,0.7-0.3,1c0,0.2-0.1,0.3-0.1,0.5v0.4l-0.1,0.5v0.4
		C72,28.8,72.8,31,74.3,32.6z"/>
	<path class="st25" d="M85.7,10.8l1.2,1.2c1.8,1.8,1.8,4.7,0,6.5l0.3-0.3c1.8-1.8,1.8-4.7,0-6.5L86,10.5c-3.1-3.1-8.2-3.2-11.3-0.1
		l0,0l-0.1,0.1C77.8,7.6,82.7,7.7,85.7,10.8z"/>
	<path class="st25" d="M96.3,10.7c-1.5-1.5-3.4-2.3-5.5-2.3c-0.3,0-0.5,0-0.8,0h-0.3c-0.5,0.1-1.1,0.2-1.6,0.4L88.4,9
		c2.7-0.8,5.6,0,7.6,2c3,3.1,3,8-0.1,11l-1.2,1.2c-1,1.1-2.5,1.6-3.9,1.4c1.5,0.3,3.1-0.2,4.2-1.3l0.6-0.6l0.6-0.6
		c0.4-0.4,0.8-0.9,1.2-1.5l0.1-0.2c0.1-0.1,0.1-0.2,0.2-0.3l0.2-0.4c0-0.1,0.1-0.2,0.1-0.3c0.1-0.3,0.3-0.7,0.3-1
		c0-0.2,0.1-0.3,0.1-0.5v-0.1c0-0.1,0-0.2,0.1-0.3l0.1-0.5v-0.3l0,0C98.7,14.5,97.9,12.3,96.3,10.7z"/>
	<path class="st25" d="M83.6,25.1L83.6,25.1c-1.1,1.1-1.5,2.9-1,4.4c0.2,0.6,0.5,1.1,1,1.6l1.4,1.4c3.1,3.1,8.2,3.2,11.3,0.1l0,0
		l0.1-0.1c-3.2,3-8.1,2.9-11.2-0.2l-1.4-1.4C82.3,29.3,82.2,26.8,83.6,25.1z"/>
	
		<radialGradient id="SVGID_29_" cx="-127.5935" cy="-18.9" r="5.02" gradientTransform="matrix(0.97 0 0 0.97 205.29 28.61)" gradientUnits="userSpaceOnUse">
		<stop  offset="0.64" style="stop-color:#FFFFFF"/>
		<stop  offset="0.76" style="stop-color:#FFFFFF;stop-opacity:0.62"/>
		<stop  offset="0.88" style="stop-color:#FFFFFF;stop-opacity:0.29"/>
		<stop  offset="0.96" style="stop-color:#FFFFFF;stop-opacity:8.000000e-02"/>
		<stop  offset="1" style="stop-color:#FFFFFF;stop-opacity:0"/>
	</radialGradient>
	<path class="st26" d="M87.7,12.3c-0.1-0.2-0.3-0.4-0.5-0.6L86,10.5c-1.5-1.5-3.6-2.4-5.7-2.4c-2.1,0-4.2,0.8-5.7,2.3
		c0,0-0.1,0.1-0.1,0.1l0.1-0.1c1.5-1.5,3.5-2.3,5.7-2.3c2.1,0,4.1,0.9,5.6,2.4l1.2,1.2C87.3,11.9,87.5,12.1,87.7,12.3z"/>
	<radialGradient id="SVGID_30_" cx="-112.12" cy="-12.71" r="5.22" gradientUnits="userSpaceOnUse">
		<stop  offset="0.64" style="stop-color:#FFFFFF"/>
		<stop  offset="0.76" style="stop-color:#FFFFFF;stop-opacity:0.62"/>
		<stop  offset="0.88" style="stop-color:#FFFFFF;stop-opacity:0.29"/>
		<stop  offset="0.96" style="stop-color:#FFFFFF;stop-opacity:8.000000e-02"/>
		<stop  offset="1" style="stop-color:#FFFFFF;stop-opacity:0"/>
	</radialGradient>
	<path class="st27" d="M98.6,16.4c0,2.1-0.8,4.1-2.3,5.6l-1.1,1.1l0,0l1.1-1.1C97.8,20.5,98.6,18.5,98.6,16.4
		c0.1-2.2-0.7-4.2-2.2-5.7c-0.5-0.5-1.1-1-1.8-1.3c0.6,0.4,1.2,0.8,1.8,1.4C97.8,12.2,98.6,14.2,98.6,16.4z"/>
	
		<radialGradient id="SVGID_31_" cx="-134.8103" cy="-1.57" r="5.22" gradientTransform="matrix(0.97 0 0 0.97 205.29 28.61)" gradientUnits="userSpaceOnUse">
		<stop  offset="0.51" style="stop-color:#FFFFFF"/>
		<stop  offset="0.68" style="stop-color:#FFFFFF;stop-opacity:0.62"/>
		<stop  offset="0.84" style="stop-color:#FFFFFF;stop-opacity:0.29"/>
		<stop  offset="0.95" style="stop-color:#FFFFFF;stop-opacity:8.000000e-02"/>
		<stop  offset="1" style="stop-color:#FFFFFF;stop-opacity:0"/>
	</radialGradient>
	<path class="st28" d="M72.1,27c0-2.1,0.9-4.2,2.4-5.6l1.1-1.1l0,0l-1.1,1.1C72.9,22.8,72,24.9,72.1,27c-0.1,2.1,0.8,4.2,2.3,5.7
		c0.5,0.5,1.1,1,1.8,1.3C73.6,32.6,72.1,29.9,72.1,27z"/>
	<path class="st29" d="M83.2,30.7c0.2,0.2,0.4,0.4,0.6,0.6l1.2,1.2c1.5,1.5,3.5,2.4,5.6,2.4c2.1,0,4.1-0.8,5.6-2.3l0.2-0.3l-0.2,0.2
		c-3.2,3-8.2,3-11.3-0.1l-1.1-1.1C83.7,31.2,83.4,31,83.2,30.7L83.2,30.7z"/>
	<rect x="0" y="-0.1" class="st30" width="105.1" height="42.1"/>
</g>
</svg>
